<mxfile host="app.diagrams.net" modified="2023-05-09T06:51:03.708Z" agent="Mozilla/5.0 (Macintosh; Intel Mac OS X 10_12_6) AppleWebKit/537.36 (KHTML, like Gecko) Chrome/103.0.0.0 Safari/537.36" etag="PemAq2nrZv62g4GImE6E" version="21.2.9" type="github">
  <diagram id="prtHgNgQTEPvFCAcTncT" name="Page-1">
    <mxGraphModel dx="954" dy="491" grid="1" gridSize="10" guides="1" tooltips="1" connect="1" arrows="1" fold="1" page="1" pageScale="1" pageWidth="827" pageHeight="1169" math="0" shadow="0">
      <root>
        <mxCell id="0" />
        <mxCell id="1" parent="0" />
        <mxCell id="R1WmhpsgiytMPzhttgdS-56" value="" style="rounded=0;whiteSpace=wrap;html=1;" parent="1" vertex="1">
          <mxGeometry x="90" y="30" width="670" height="610" as="geometry" />
        </mxCell>
        <mxCell id="R1WmhpsgiytMPzhttgdS-1" value="" style="rounded=0;whiteSpace=wrap;html=1;fillColor=#fff2cc;gradientColor=#ffd966;strokeColor=#d6b656;gradientDirection=north;" parent="1" vertex="1">
          <mxGeometry x="99" y="40" width="641" height="100" as="geometry" />
        </mxCell>
        <mxCell id="R1WmhpsgiytMPzhttgdS-2" value="浏览器端" style="text;html=1;strokeColor=none;fillColor=none;align=center;verticalAlign=middle;whiteSpace=wrap;rounded=0;fontSize=14;fontColor=#FF8000;" parent="1" vertex="1">
          <mxGeometry x="394" y="40" width="60" height="30" as="geometry" />
        </mxCell>
        <mxCell id="R1WmhpsgiytMPzhttgdS-3" value="" style="rounded=0;whiteSpace=wrap;html=1;fillColor=#d5e8d4;gradientColor=#97d077;strokeColor=#82b366;" parent="1" vertex="1">
          <mxGeometry x="99" y="200" width="641" height="100" as="geometry" />
        </mxCell>
        <mxCell id="R1WmhpsgiytMPzhttgdS-4" value="python端" style="text;html=1;strokeColor=none;fillColor=none;align=center;verticalAlign=middle;whiteSpace=wrap;rounded=0;fontColor=#009900;fontSize=14;" parent="1" vertex="1">
          <mxGeometry x="394" y="200" width="60" height="30" as="geometry" />
        </mxCell>
        <mxCell id="R1WmhpsgiytMPzhttgdS-5" value="" style="outlineConnect=0;dashed=0;verticalLabelPosition=bottom;verticalAlign=top;align=center;html=1;shape=mxgraph.aws3.rds_db_instance_read_replica;fillColor=#2E73B8;gradientColor=none;" parent="1" vertex="1">
          <mxGeometry x="455.25" y="330" width="49.5" height="66" as="geometry" />
        </mxCell>
        <mxCell id="R1WmhpsgiytMPzhttgdS-9" value="flask服务器" style="rounded=1;whiteSpace=wrap;html=1;fillColor=#ffff88;strokeColor=#36393d;" parent="1" vertex="1">
          <mxGeometry x="110" y="232.5" width="100" height="50" as="geometry" />
        </mxCell>
        <mxCell id="R1WmhpsgiytMPzhttgdS-10" value="" style="rounded=1;whiteSpace=wrap;html=1;fillColor=#b1ddf0;strokeColor=#10739e;" parent="1" vertex="1">
          <mxGeometry x="230" y="224" width="480" height="76" as="geometry" />
        </mxCell>
        <mxCell id="R1WmhpsgiytMPzhttgdS-8" value="数据计算" style="rounded=1;whiteSpace=wrap;html=1;fillColor=#cdeb8b;strokeColor=#36393d;" parent="1" vertex="1">
          <mxGeometry x="280" y="232" width="100" height="50" as="geometry" />
        </mxCell>
        <mxCell id="R1WmhpsgiytMPzhttgdS-41" style="edgeStyle=orthogonalEdgeStyle;rounded=0;orthogonalLoop=1;jettySize=auto;html=1;exitX=0;exitY=0.5;exitDx=0;exitDy=0;entryX=1;entryY=0.5;entryDx=0;entryDy=0;" parent="1" source="R1WmhpsgiytMPzhttgdS-7" target="R1WmhpsgiytMPzhttgdS-8" edge="1">
          <mxGeometry relative="1" as="geometry" />
        </mxCell>
        <mxCell id="R1WmhpsgiytMPzhttgdS-7" value="数据清洗" style="rounded=1;whiteSpace=wrap;html=1;fillColor=#ffcccc;strokeColor=#36393d;" parent="1" vertex="1">
          <mxGeometry x="430" y="232" width="100" height="50" as="geometry" />
        </mxCell>
        <mxCell id="R1WmhpsgiytMPzhttgdS-40" style="edgeStyle=orthogonalEdgeStyle;rounded=0;orthogonalLoop=1;jettySize=auto;html=1;exitX=0;exitY=0.5;exitDx=0;exitDy=0;entryX=1;entryY=0.5;entryDx=0;entryDy=0;" parent="1" source="R1WmhpsgiytMPzhttgdS-6" target="R1WmhpsgiytMPzhttgdS-7" edge="1">
          <mxGeometry relative="1" as="geometry" />
        </mxCell>
        <mxCell id="R1WmhpsgiytMPzhttgdS-6" value="数据读取" style="rounded=1;whiteSpace=wrap;html=1;fillColor=#eeeeee;strokeColor=#36393d;" parent="1" vertex="1">
          <mxGeometry x="577" y="232" width="100" height="50" as="geometry" />
        </mxCell>
        <mxCell id="R1WmhpsgiytMPzhttgdS-11" value="数据自动处理模块" style="text;html=1;strokeColor=none;fillColor=none;align=center;verticalAlign=middle;whiteSpace=wrap;rounded=0;fontColor=#0000FF;" parent="1" vertex="1">
          <mxGeometry x="390" y="280" width="130" height="20" as="geometry" />
        </mxCell>
        <mxCell id="R1WmhpsgiytMPzhttgdS-13" value="" style="shape=flexArrow;endArrow=classic;html=1;rounded=0;entryX=0.5;entryY=1;entryDx=0;entryDy=0;exitX=1;exitY=0.1;exitDx=0;exitDy=0;exitPerimeter=0;" parent="1" source="R1WmhpsgiytMPzhttgdS-5" target="R1WmhpsgiytMPzhttgdS-6" edge="1">
          <mxGeometry width="50" height="50" relative="1" as="geometry">
            <mxPoint x="471" y="380" as="sourcePoint" />
            <mxPoint x="640" y="300" as="targetPoint" />
          </mxGeometry>
        </mxCell>
        <mxCell id="R1WmhpsgiytMPzhttgdS-14" value="" style="rounded=0;whiteSpace=wrap;html=1;fillColor=#f5f5f5;gradientColor=#b3b3b3;strokeColor=#666666;gradientDirection=south;" parent="1" vertex="1">
          <mxGeometry x="99" y="410" width="641" height="100" as="geometry" />
        </mxCell>
        <mxCell id="R1WmhpsgiytMPzhttgdS-15" value="安卓端" style="text;html=1;strokeColor=none;fillColor=none;align=center;verticalAlign=middle;whiteSpace=wrap;rounded=0;fontColor=#666666;fontSize=14;" parent="1" vertex="1">
          <mxGeometry x="396" y="408" width="60" height="30" as="geometry" />
        </mxCell>
        <mxCell id="R1WmhpsgiytMPzhttgdS-16" value="" style="outlineConnect=0;dashed=0;verticalLabelPosition=bottom;verticalAlign=top;align=center;html=1;shape=mxgraph.aws3.sensor;fillColor=#5294CF;gradientColor=none;" parent="1" vertex="1">
          <mxGeometry x="611.75" y="530" width="76.5" height="90" as="geometry" />
        </mxCell>
        <mxCell id="R1WmhpsgiytMPzhttgdS-17" value="" style="sketch=0;outlineConnect=0;fontColor=#232F3E;gradientColor=none;fillColor=#3F8624;strokeColor=none;dashed=0;verticalLabelPosition=bottom;verticalAlign=top;align=center;html=1;fontSize=12;fontStyle=0;aspect=fixed;pointerEvents=1;shape=mxgraph.aws4.sensor;" parent="1" vertex="1">
          <mxGeometry x="134.90999999999997" y="529" width="78.97" height="88" as="geometry" />
        </mxCell>
        <mxCell id="R1WmhpsgiytMPzhttgdS-18" value="运动传感器" style="text;html=1;strokeColor=none;fillColor=none;align=center;verticalAlign=middle;whiteSpace=wrap;rounded=0;" parent="1" vertex="1">
          <mxGeometry x="139.03" y="618" width="70.73" height="30" as="geometry" />
        </mxCell>
        <mxCell id="R1WmhpsgiytMPzhttgdS-19" value="位置传感器" style="text;html=1;strokeColor=none;fillColor=none;align=center;verticalAlign=middle;whiteSpace=wrap;rounded=0;" parent="1" vertex="1">
          <mxGeometry x="611.75" y="617" width="73.5" height="32" as="geometry" />
        </mxCell>
        <mxCell id="R1WmhpsgiytMPzhttgdS-53" style="edgeStyle=orthogonalEdgeStyle;rounded=0;orthogonalLoop=1;jettySize=auto;html=1;exitX=0;exitY=0.5;exitDx=0;exitDy=0;entryX=1;entryY=0.5;entryDx=0;entryDy=0;" parent="1" source="R1WmhpsgiytMPzhttgdS-20" target="R1WmhpsgiytMPzhttgdS-23" edge="1">
          <mxGeometry relative="1" as="geometry" />
        </mxCell>
        <mxCell id="R1WmhpsgiytMPzhttgdS-20" value="本地存储" style="rounded=1;whiteSpace=wrap;html=1;fillColor=#fff2cc;strokeColor=#d6b656;" parent="1" vertex="1">
          <mxGeometry x="446" y="433" width="100" height="50" as="geometry" />
        </mxCell>
        <mxCell id="R1WmhpsgiytMPzhttgdS-51" style="edgeStyle=orthogonalEdgeStyle;rounded=0;orthogonalLoop=1;jettySize=auto;html=1;exitX=0;exitY=0.5;exitDx=0;exitDy=0;" parent="1" source="R1WmhpsgiytMPzhttgdS-21" target="R1WmhpsgiytMPzhttgdS-20" edge="1">
          <mxGeometry relative="1" as="geometry" />
        </mxCell>
        <mxCell id="R1WmhpsgiytMPzhttgdS-21" value="记录模块" style="rounded=1;whiteSpace=wrap;html=1;fillColor=#e1d5e7;strokeColor=#9673a6;" parent="1" vertex="1">
          <mxGeometry x="596.5" y="433" width="100" height="50" as="geometry" />
        </mxCell>
        <mxCell id="R1WmhpsgiytMPzhttgdS-23" value="上传模块" style="rounded=1;whiteSpace=wrap;html=1;fillColor=#f5f5f5;fontColor=#333333;strokeColor=#666666;" parent="1" vertex="1">
          <mxGeometry x="276" y="433" width="100" height="50" as="geometry" />
        </mxCell>
        <mxCell id="R1WmhpsgiytMPzhttgdS-52" style="edgeStyle=orthogonalEdgeStyle;rounded=0;orthogonalLoop=1;jettySize=auto;html=1;exitX=1;exitY=0.5;exitDx=0;exitDy=0;entryX=0;entryY=0.5;entryDx=0;entryDy=0;" parent="1" source="R1WmhpsgiytMPzhttgdS-24" target="R1WmhpsgiytMPzhttgdS-23" edge="1">
          <mxGeometry relative="1" as="geometry" />
        </mxCell>
        <mxCell id="R1WmhpsgiytMPzhttgdS-24" value="车型录入" style="rounded=1;whiteSpace=wrap;html=1;fillColor=#ffe6cc;strokeColor=#d79b00;" parent="1" vertex="1">
          <mxGeometry x="120" y="433" width="100" height="50" as="geometry" />
        </mxCell>
        <mxCell id="R1WmhpsgiytMPzhttgdS-30" style="edgeStyle=orthogonalEdgeStyle;rounded=0;orthogonalLoop=1;jettySize=auto;html=1;exitX=0;exitY=0.5;exitDx=0;exitDy=0;entryX=1;entryY=0.5;entryDx=0;entryDy=0;" parent="1" source="R1WmhpsgiytMPzhttgdS-25" target="R1WmhpsgiytMPzhttgdS-29" edge="1">
          <mxGeometry relative="1" as="geometry" />
        </mxCell>
        <mxCell id="R1WmhpsgiytMPzhttgdS-25" value="地图加载" style="rounded=1;whiteSpace=wrap;html=1;fillColor=#bac8d3;strokeColor=#23445d;" parent="1" vertex="1">
          <mxGeometry x="566" y="70" width="100" height="50" as="geometry" />
        </mxCell>
        <mxCell id="R1WmhpsgiytMPzhttgdS-32" style="edgeStyle=orthogonalEdgeStyle;rounded=0;orthogonalLoop=1;jettySize=auto;html=1;exitX=1;exitY=0.5;exitDx=0;exitDy=0;" parent="1" source="R1WmhpsgiytMPzhttgdS-26" target="R1WmhpsgiytMPzhttgdS-29" edge="1">
          <mxGeometry relative="1" as="geometry" />
        </mxCell>
        <mxCell id="R1WmhpsgiytMPzhttgdS-26" value="数据读取" style="rounded=1;whiteSpace=wrap;html=1;aspect=fixed;fillColor=#b0e3e6;strokeColor=#0e8088;" parent="1" vertex="1">
          <mxGeometry x="180" y="70" width="100" height="50" as="geometry" />
        </mxCell>
        <mxCell id="R1WmhpsgiytMPzhttgdS-27" value="持久化相关配置" style="rounded=1;whiteSpace=wrap;html=1;fillColor=#F19C99;strokeColor=#36393d;" parent="1" vertex="1">
          <mxGeometry x="218" y="370" width="100" height="30" as="geometry" />
        </mxCell>
        <mxCell id="R1WmhpsgiytMPzhttgdS-28" value="多用户支持字段" style="rounded=1;whiteSpace=wrap;html=1;fillColor=#67AB9F;strokeColor=#36393d;" parent="1" vertex="1">
          <mxGeometry x="218" y="310" width="100" height="30" as="geometry" />
        </mxCell>
        <mxCell id="R1WmhpsgiytMPzhttgdS-29" value="要素图层渲染" style="rounded=1;whiteSpace=wrap;html=1;fillColor=#d0cee2;strokeColor=#56517e;" parent="1" vertex="1">
          <mxGeometry x="376" y="70" width="100" height="50" as="geometry" />
        </mxCell>
        <mxCell id="R1WmhpsgiytMPzhttgdS-31" value="提供baseMap" style="text;html=1;strokeColor=none;fillColor=none;align=center;verticalAlign=middle;whiteSpace=wrap;rounded=0;" parent="1" vertex="1">
          <mxGeometry x="486" y="80" width="80" height="20" as="geometry" />
        </mxCell>
        <mxCell id="R1WmhpsgiytMPzhttgdS-33" value="提供data" style="text;html=1;strokeColor=none;fillColor=none;align=center;verticalAlign=middle;whiteSpace=wrap;rounded=0;" parent="1" vertex="1">
          <mxGeometry x="290" y="75" width="80" height="25" as="geometry" />
        </mxCell>
        <mxCell id="R1WmhpsgiytMPzhttgdS-34" value="每2s一次检测redis中update的值，并触发自动更新" style="shape=callout;whiteSpace=wrap;html=1;perimeter=calloutPerimeter;" parent="1" vertex="1">
          <mxGeometry x="446" y="140" width="120" height="80" as="geometry" />
        </mxCell>
        <mxCell id="R1WmhpsgiytMPzhttgdS-35" value="" style="shape=flexArrow;endArrow=classic;html=1;rounded=0;entryX=0.64;entryY=0.96;entryDx=0;entryDy=0;entryPerimeter=0;exitX=0.75;exitY=0;exitDx=0;exitDy=0;" parent="1" source="R1WmhpsgiytMPzhttgdS-9" target="R1WmhpsgiytMPzhttgdS-26" edge="1">
          <mxGeometry width="50" height="50" relative="1" as="geometry">
            <mxPoint x="160" y="230" as="sourcePoint" />
            <mxPoint x="210" y="180" as="targetPoint" />
          </mxGeometry>
        </mxCell>
        <mxCell id="R1WmhpsgiytMPzhttgdS-36" value="" style="shape=flexArrow;endArrow=classic;html=1;rounded=0;exitX=0.14;exitY=1.02;exitDx=0;exitDy=0;exitPerimeter=0;" parent="1" source="R1WmhpsgiytMPzhttgdS-26" edge="1">
          <mxGeometry width="50" height="50" relative="1" as="geometry">
            <mxPoint x="50" y="210" as="sourcePoint" />
            <mxPoint x="140" y="230" as="targetPoint" />
          </mxGeometry>
        </mxCell>
        <mxCell id="R1WmhpsgiytMPzhttgdS-37" value="发送&lt;br&gt;请求" style="text;html=1;strokeColor=none;fillColor=none;align=center;verticalAlign=middle;whiteSpace=wrap;rounded=0;" parent="1" vertex="1">
          <mxGeometry x="110" y="150" width="60" height="30" as="geometry" />
        </mxCell>
        <mxCell id="R1WmhpsgiytMPzhttgdS-38" value="API" style="text;html=1;strokeColor=none;fillColor=none;align=center;verticalAlign=middle;whiteSpace=wrap;rounded=0;" parent="1" vertex="1">
          <mxGeometry x="220" y="150" width="60" height="30" as="geometry" />
        </mxCell>
        <mxCell id="R1WmhpsgiytMPzhttgdS-42" value="" style="shape=flexArrow;endArrow=classic;html=1;rounded=0;exitX=0.5;exitY=1;exitDx=0;exitDy=0;entryX=0;entryY=0.1;entryDx=0;entryDy=0;entryPerimeter=0;" parent="1" source="R1WmhpsgiytMPzhttgdS-8" target="R1WmhpsgiytMPzhttgdS-5" edge="1">
          <mxGeometry width="50" height="50" relative="1" as="geometry">
            <mxPoint x="340" y="420" as="sourcePoint" />
            <mxPoint x="470" y="380" as="targetPoint" />
          </mxGeometry>
        </mxCell>
        <mxCell id="R1WmhpsgiytMPzhttgdS-43" value="更新数据" style="text;html=1;strokeColor=none;fillColor=none;align=center;verticalAlign=middle;whiteSpace=wrap;rounded=0;" parent="1" vertex="1">
          <mxGeometry x="450" y="300" width="60" height="30" as="geometry" />
        </mxCell>
        <mxCell id="R1WmhpsgiytMPzhttgdS-44" value="" style="shape=curlyBracket;whiteSpace=wrap;html=1;rounded=1;flipH=1;labelPosition=right;verticalLabelPosition=middle;align=left;verticalAlign=middle;" parent="1" vertex="1">
          <mxGeometry x="318" y="328" width="144" height="62" as="geometry" />
        </mxCell>
        <mxCell id="R1WmhpsgiytMPzhttgdS-45" value="以一定的采样频率，读取某个时间点的运动传感器和位置传感器信息" style="shape=callout;whiteSpace=wrap;html=1;perimeter=calloutPerimeter;" parent="1" vertex="1">
          <mxGeometry x="577" y="353" width="144" height="80" as="geometry" />
        </mxCell>
        <mxCell id="R1WmhpsgiytMPzhttgdS-47" value="" style="shape=flexArrow;endArrow=classic;html=1;rounded=0;entryX=0.5;entryY=1;entryDx=0;entryDy=0;" parent="1" source="R1WmhpsgiytMPzhttgdS-17" target="R1WmhpsgiytMPzhttgdS-21" edge="1">
          <mxGeometry width="50" height="50" relative="1" as="geometry">
            <mxPoint x="310" y="590" as="sourcePoint" />
            <mxPoint x="360" y="540" as="targetPoint" />
          </mxGeometry>
        </mxCell>
        <mxCell id="R1WmhpsgiytMPzhttgdS-48" value="" style="shape=flexArrow;endArrow=classic;html=1;rounded=0;entryX=0.5;entryY=1;entryDx=0;entryDy=0;" parent="1" source="R1WmhpsgiytMPzhttgdS-16" target="R1WmhpsgiytMPzhttgdS-21" edge="1">
          <mxGeometry width="50" height="50" relative="1" as="geometry">
            <mxPoint x="490" y="630" as="sourcePoint" />
            <mxPoint x="540" y="580" as="targetPoint" />
          </mxGeometry>
        </mxCell>
        <mxCell id="R1WmhpsgiytMPzhttgdS-49" value="读取api" style="text;html=1;strokeColor=none;fillColor=none;align=center;verticalAlign=middle;whiteSpace=wrap;rounded=0;" parent="1" vertex="1">
          <mxGeometry x="258" y="520" width="60" height="30" as="geometry" />
        </mxCell>
        <mxCell id="R1WmhpsgiytMPzhttgdS-50" value="读取api" style="text;html=1;strokeColor=none;fillColor=none;align=center;verticalAlign=middle;whiteSpace=wrap;rounded=0;" parent="1" vertex="1">
          <mxGeometry x="650" y="510" width="60" height="30" as="geometry" />
        </mxCell>
        <mxCell id="R1WmhpsgiytMPzhttgdS-54" value="" style="shape=flexArrow;endArrow=classic;html=1;rounded=0;entryX=0.5;entryY=0.99;entryDx=0;entryDy=0;entryPerimeter=0;exitX=0.5;exitY=0;exitDx=0;exitDy=0;" parent="1" source="R1WmhpsgiytMPzhttgdS-23" target="R1WmhpsgiytMPzhttgdS-5" edge="1">
          <mxGeometry width="50" height="50" relative="1" as="geometry">
            <mxPoint x="390" y="440" as="sourcePoint" />
            <mxPoint x="440" y="390" as="targetPoint" />
          </mxGeometry>
        </mxCell>
      </root>
    </mxGraphModel>
  </diagram>
</mxfile>
